<svg width="48" height="48" xmlns="http://www.w3.org/2000/svg">

 <g>
  <title>background</title>
  <rect fill="none" id="canvas_background" height="402" width="582" y="-1" x="-1"/>
 </g>
 <g>
  <title>Layer 1</title>
  <path fill="#20c997" id="svg_1" fill-rule="evenodd" d="m46.068259,44.506259l-44,0c-0.553,0 -1,-0.447 -1,-1s0.447,-1 1,-1l44,0c0.553,0 1,0.447 1,1s-0.447,1 -1,1zm-30,-10c0.553,0 1,0.447 1,1s-0.447,1 -1,1l-8,0c-0.553,0 -1,-0.447 -1,-1s0.447,-1 1,-1l1,0l0,-13l-1,0c-0.553,0 -1,-0.447 -1,-1c0,-0.552 0.447,-1 1,-1l8,0c0.553,0 1,0.448 1,1c0,0.553 -0.447,1 -1,1l-1,0l0,13l1,0zm-3,-13l-2,0l0,13l2,0l0,-13zm15,13c0.553,0 1,0.447 1,1s-0.447,1 -1,1l-8,0c-0.553,0 -1,-0.447 -1,-1s0.447,-1 1,-1l1,0l0,-13l-1,0c-0.553,0 -1,-0.447 -1,-1c0,-0.552 0.447,-1 1,-1l8,0c0.553,0 1,0.448 1,1c0,0.553 -0.447,1 -1,1l-1,0l0,13l1,0zm-3,-13l-2,0l0,13l2,0l0,-13zm19,18c0,0.553 -0.447,1 -1,1l-38,0c-0.553,0 -1,-0.447 -1,-1s0.447,-1 1,-1l38,0c0.553,0 1,0.447 1,1zm-4,-5c0.553,0 1,0.447 1,1s-0.447,1 -1,1l-8,0c-0.553,0 -1,-0.447 -1,-1s0.447,-1 1,-1l1,0l0,-13l-1,0c-0.553,0 -1,-0.447 -1,-1c0,-0.552 0.447,-1 1,-1l8,0c0.553,0 1,0.448 1,1c0,0.553 -0.447,1 -1,1l-1,0l0,13l1,0zm-3,-13l-2,0l0,13l2,0l0,-13zm-34,-6l21,-11.438l21,11.438l0,2l-42,0l0,-2zm37.541,0l-16.541,-8.552l-16.604,8.552l33.145,0z" clip-rule="evenodd"/>
 </g>
</svg>