<svg width="64" height="64" xmlns="http://www.w3.org/2000/svg">

 <g>
  <title>background</title>
  <rect fill="none" id="canvas_background" height="402" width="582" y="-1" x="-1"/>
 </g>
 <g>
  <title>Layer 1</title>
  <path id="svg_2" fill="#20c997" d="m55.087,25.449c-2.018,-7.12 -7.242,-12.925 -14.1,-15.698c-0.133,-4.847 -4.109,-8.751 -8.987,-8.751c-4.879,0 -8.854,3.904 -8.987,8.752c-6.858,2.772 -12.083,8.576 -14.099,15.697c-4.567,1.338 -7.914,5.558 -7.914,10.551c0,6.065 4.935,11 11,11c1.037,0 2.049,-0.153 3.029,-0.434c0.302,9.111 7.788,16.434 16.971,16.434c9.183,0 16.669,-7.323 16.971,-16.434c0.98,0.281 1.992,0.434 3.029,0.434c6.065,0 11,-4.935 11,-11c0,-4.993 -3.347,-9.213 -7.913,-10.551zm-2.211,-0.405c-0.29,-0.023 -0.58,-0.044 -0.876,-0.044c-0.424,0 -0.842,0.033 -1.256,0.081c-1.865,-5.058 -5.664,-9.112 -10.581,-11.314c0.283,-0.611 0.507,-1.255 0.648,-1.931c5.703,2.496 10.102,7.31 12.065,13.208zm-17.876,4.237l0,-10.806c1.646,-0.585 3.07,-1.632 4.119,-2.99c4.447,1.918 7.9,5.512 9.644,10.015c-3.2,0.993 -5.826,3.409 -7.037,6.577c-1.977,-1.385 -4.259,-2.354 -6.726,-2.796zm-12.726,2.796c-1.212,-3.168 -3.837,-5.585 -7.037,-6.577c1.744,-4.502 5.196,-8.097 9.644,-10.015c1.049,1.358 2.473,2.405 4.119,2.99l0,10.807c-2.467,0.441 -4.749,1.41 -6.726,2.795zm8.726,-13.136c0.329,0.037 0.662,0.059 1,0.059s0.671,-0.022 1,-0.059l0,10.11c-0.333,-0.02 -0.662,-0.051 -1,-0.051s-0.667,0.031 -1,0.051l0,-10.11zm1,-15.941c3.86,0 7,3.141 7,7s-3.14,7 -7,7s-7,-3.141 -7,-7s3.14,-7 7,-7zm-8.81,8.837c0.141,0.675 0.365,1.319 0.648,1.93c-4.918,2.202 -8.716,6.256 -10.582,11.314c-0.414,-0.048 -0.832,-0.081 -1.256,-0.081c-0.296,0 -0.587,0.021 -0.877,0.044c1.964,-5.898 6.363,-10.712 12.067,-13.207zm-20.19,24.163c0,-4.963 4.038,-9 9,-9c3.989,0 7.492,2.65 8.62,6.407c-3.081,2.787 -5.144,6.672 -5.541,11.041c-0.984,0.359 -2.015,0.552 -3.079,0.552c-4.962,0 -9,-4.037 -9,-9zm29,25c-8.271,0 -15,-6.729 -15,-15s6.729,-15 15,-15s15,6.729 15,15s-6.729,15 -15,15zm20,-16c-1.063,0 -2.094,-0.193 -3.079,-0.552c-0.398,-4.369 -2.461,-8.254 -5.541,-11.041c1.128,-3.757 4.631,-6.407 8.62,-6.407c4.962,0 9,4.037 9,9s-4.038,9 -9,9z"/>
  <path id="svg_3" fill="#007f7f" d="m34.182025,35l-1,0l0,-2l-2,0l0,2l-1,0c-3.309,0 -6,2.691 -6,6s2.691,6 6,6l4,0c2.206,0 4,1.794 4,4s-1.794,4 -4,4l-4,0c-2.206,0 -4,-1.794 -4,-4l0,-2l-2,0l0,2c0,3.309 2.691,6 6,6l1,0l0,2l2,0l0,-2l1,0c3.309,0 6,-2.691 6,-6s-2.691,-6 -6,-6l-4,0c-2.206,0 -4,-1.794 -4,-4s1.794,-4 4,-4l4,0c2.206,0 4,1.794 4,4l0,2l2,0l0,-2c0,-3.309 -2.691,-6 -6,-6z"/>
  <path id="svg_4" fill="#007f7f" d="m16.182025,38c0,-1.654 -1.346,-3 -3,-3l-2,0c-0.551,0 -1,-0.448 -1,-1s0.449,-1 1,-1l2,0c0.551,0 1,0.448 1,1l2,0c0,-1.654 -1.346,-3 -3,-3l0,-2l-2,0l0,2c-1.654,0 -3,1.346 -3,3s1.346,3 3,3l2,0c0.551,0 1,0.448 1,1s-0.449,1 -1,1l-2,0c-0.551,0 -1,-0.448 -1,-1l-2,0c0,1.654 1.346,3 3,3l0,2l2,0l0,-2c1.654,0 3,-1.346 3,-3z"/>
  <path id="svg_5" fill="#007f7f" d="m51,33l2,0c0.551,0 1,0.448 1,1l2,0c0,-1.654 -1.346,-3 -3,-3l0,-2l-2,0l0,2c-1.654,0 -3,1.346 -3,3s1.346,3 3,3l2,0c0.551,0 1,0.448 1,1s-0.449,1 -1,1l-2,0c-0.551,0 -1,-0.448 -1,-1l-2,0c0,1.654 1.346,3 3,3l0,2l2,0l0,-2c1.654,0 3,-1.346 3,-3s-1.346,-3 -3,-3l-2,0c-0.551,0 -1,-0.448 -1,-1s0.449,-1 1,-1z"/>
  <path id="svg_6" fill="#007f7f" d="m32.182025,15c0.877,0 1.742,-0.231 2.5,-0.669l-1,-1.732c-0.455,0.262 -0.973,0.401 -1.5,0.401c-1.654,0 -3,-1.346 -3,-3s1.346,-3 3,-3s3,1.346 3,3c0,0.528 -0.139,1.046 -0.4,1.499l1.73,1.002c0.439,-0.757 0.67,-1.622 0.67,-2.501c0,-2.757 -2.243,-5 -5,-5s-5,2.243 -5,5s2.243,5 5,5z"/>
  <rect id="svg_7" fill="#007f7f" y="45" x="42.091013" width="2" height="2"/>
  <rect id="svg_8" fill="#007f7f" y="45" x="20.182025" width="2" height="2"/>
 </g>
</svg>