<svg width="30" height="30" xmlns="http://www.w3.org/2000/svg">

 <g>
  <title>background</title>
  <rect fill="none" id="canvas_background" height="402" width="582" y="-1" x="-1"/>
 </g>
 <g>
  <title>Layer 1</title>
  <path fill="#20c997" id="svg_2" d="m17,20.263l0,-1.684c0,0 1.568,-1.478 1.682,-2.486c0,0 0.818,-0.565 0.818,-1.578c0,-0.702 -0.313,-0.808 -0.313,-0.808s0.563,-1.069 0.563,-2.089c0,-2.045 -1.026,-3.618 -2.75,-3.618c0,0 -0.732,-1 -2,-1c-2.692,0 -4.875,1.622 -4.875,4.524c0,1.227 0.688,2.183 0.688,2.183s-0.313,0.153 -0.313,0.808c0,1.273 0.818,1.578 0.818,1.578c0.114,1.008 1.682,2.486 1.682,2.486l0,1.684c-0.842,2.526 -6,0.862 -6,6.737l16,0c0,-5.895 -5.158,-4.211 -6,-6.737z"/>
  <path fill="#007f7f" id="svg_4" d="m21.75,11.618c0,0.735 -0.172,1.441 -0.358,1.989c0.069,0.271 0.108,0.573 0.108,0.908c0,2.47 -2.5,4.934 -2.5,4.934c0.543,0.237 2.28,1.12 2.99,1.551l8.01,0c0,-5.25 -4.263,-3.75 -5,-6l0,-1.5c0.332,-0.167 1.122,-1.316 1.222,-2.214c0.26,-0.02 0.778,-0.657 0.778,-1.226s-0.18,-0.807 -0.337,-0.899c0,0 0.337,-0.752 0.337,-1.661c0,-1.821 -0.492,-3.5 -2,-3.5c0,0 -0.433,-1 -2,-1c-2.223,0 -3.588,1.529 -3.918,3.533c1.616,0.866 2.668,2.734 2.668,5.085z"/>
  <path fill="#007f7f" id="svg_6" d="m11,19.392c-0.543,-0.58 -1.327,-1.582 -1.612,-2.341c-0.624,-0.313 -1.151,-0.682 -1.388,-1.3l0,-1.008c0.19,0 0.751,-0.044 0.948,-0.088c-0.446,-0.687 -0.823,-2.253 -0.823,-3.131c0,-2.233 0.961,-4.07 2.556,-5.221c-0.481,-1.841 -1.549,-3.303 -4.08,-3.303c-0.914,0 -1.601,1 -1.601,1c-5.235,0 -2.346,8.355 -3.884,9.587c0,0 0.942,1.167 3.884,1.167l0,0.998c-0.813,2.118 -5,1.335 -5,5.248l8.023,0c0.704,-0.426 2.977,-1.608 2.977,-1.608z"/>
 </g>
</svg>