<svg width="500" height="500" xmlns="http://www.w3.org/2000/svg">

 <title/>
 <g>
  <title>background</title>
  <rect fill="none" id="canvas_background" height="402" width="582" y="-1" x="-1"/>
 </g>
 <g>
  <title>Layer 1</title>
  <circle fill="#007f7f" id="svg_1" r="250" cy="250" cx="250" class="cls-1"/>
  <circle fill="#20c997" id="svg_2" r="203.65" cy="250" cx="250" class="cls-2"/>
  <path fill="#ffffff" id="svg_3" d="m317.82,206.6l-0.5,0.69a11.92,11.92 0 0 0 0.46,15c16.31,18.84 26.38,44.41 26.38,72.57c0,48.37 -29,69.94 -94.16,69.94s-94.16,-21.57 -94.16,-69.94c0,-28.16 10.07,-53.73 26.38,-72.57a11.92,11.92 0 0 0 0.46,-15l-0.5,-0.69a11.83,11.83 0 0 0 -18.56,-1c-20.29,23.27 -32.77,54.7 -32.77,89.25c0,63 40.09,94.94 119.16,94.94s119.16,-31.94 119.16,-94.94c0,-34.56 -12.48,-66 -32.77,-89.25a11.83,11.83 0 0 0 -18.58,1z" class="cls-3"/>
  <path fill="#ffffff" id="svg_4" d="m250,213.11a49.89,49.89 0 1 1 49.89,-49.88a49.94,49.94 0 0 1 -49.89,49.88zm0,-81a31.14,31.14 0 1 0 31.14,31.14a31.17,31.17 0 0 0 -31.14,-31.16l0,0.02z" class="cls-3"/>
 </g>
</svg>